<svg id="Layer_1" data-name="Layer 1" xmlns="http://www.w3.org/2000/svg" xmlns:xlink="http://www.w3.org/1999/xlink" viewBox="0 0 35 33.27"><defs><style>.cls-1{fill:url(#linear-gradient);}.cls-2{fill:url(#linear-gradient-2);}.cls-3{fill:url(#linear-gradient-3);}</style><linearGradient id="linear-gradient" x1="13.35" y1="34.13" x2="13.35" y2="16.24" gradientUnits="userSpaceOnUse"><stop offset="0" stop-color="red"/><stop offset="1" stop-color="#474343"/></linearGradient><linearGradient id="linear-gradient-2" x1="16.14" y1="21.31" x2="16.14" y2="9.89" xlink:href="#linear-gradient"/><linearGradient id="linear-gradient-3" x1="17.5" y1="26.09" x2="17.5" y2="0.87" xlink:href="#linear-gradient"/></defs><title>education</title><path class="cls-1" d="M21.11,26c-.9-.61-8.6-5.85-10.68-9.53l-.11-.2h-.23a5.51,5.51,0,0,0-3.78,1.49q-.37-.36-.75-.75l-.3-.31L5,17c-1.17,1.21-1.69,2.35-1.54,3.37a3,3,0,0,0,1.63,2.09c.18.09,2.16,1.44,4.32,3.17C9,26,7.64,26.87,7.15,27.22S4.3,29.7,4.3,29.7l1.48.35.52,1a10.75,10.75,0,0,1,1.48-2.58,8.46,8.46,0,0,1,2.13-1.54A19.2,19.2,0,0,0,8.65,29,9.17,9.17,0,0,0,8,31.77l.91-.29.62,1.36a19.09,19.09,0,0,1,.56-3.18,7.06,7.06,0,0,1,1.36-2.31c2.73,2.4,5.59,5.31,6.16,5.9a2.54,2.54,0,0,0,1.37.81,2.7,2.7,0,0,0,.63.07,3.59,3.59,0,0,0,3-2,4.56,4.56,0,0,0-.39-5.33A2.88,2.88,0,0,0,21.11,26ZM9.52,24.66c-2-1.56-3.79-2.79-4-2.94a2.16,2.16,0,0,1-1.22-1.48,3.09,3.09,0,0,1,1-2.36c1.93,2,3.59,3.56,5,4.81a3.76,3.76,0,0,0-.75,2ZM10.75,22c-1.12-1-2.4-2.19-3.85-3.65a4.83,4.83,0,0,1,2.93-1.26A18.21,18.21,0,0,0,13,20.72,3.31,3.31,0,0,0,10.75,22Zm.85,4.39a6.43,6.43,0,0,1,.61-2,20.6,20.6,0,0,0,4.47,3,12.64,12.64,0,0,0,0,3.81c-1.32-1.3-3.26-3.18-5.1-4.77Zm10.3,5.31a2.65,2.65,0,0,1-2.75,1.56c-2.11-.47-1.87-4.57-1.59-6.12l.06-.39-.38-.09s-1.34-.37-4.58-3A4.11,4.11,0,0,1,15,22.46c1.83,1.52,3.66,2.84,4.75,3.6a.19.19,0,0,0-.09.05,3.86,3.86,0,0,0-1.51,3.77c.32,1.16,1.1,1.91,1.91,1.89.35,0,1.2-.21,1.51-1.76l.05-.24-.18-.16c-1.18-1-1.83-1.6-2.13-1.9a2.13,2.13,0,0,1,.76-.88c.47-.26,1-.09,1.58.52a3.74,3.74,0,0,1,.26,4.34Zm-1.21-1.61c-.15.53-.39.85-.67.86h0c-.35,0-.84-.44-1.07-1.28a2.44,2.44,0,0,1,0-1.09c.34.33.88.81,1.7,1.51Zm0,0" transform="translate(0 -0.87)"/><path class="cls-2" d="M25.25,21.31l-.33-.19a59,59,0,0,0-9.18-4,58.3,58.3,0,0,0-9.85-1.92l-.38,0L7,10.37l.18,0a23.38,23.38,0,0,1,10.48.33,25.14,25.14,0,0,1,9,5.65l.13.13ZM6.33,14.6a57,57,0,0,1,9.59,1.91,56.53,56.53,0,0,1,9,3.89l1.17-3.77a24.66,24.66,0,0,0-8.59-5.36,23,23,0,0,0-10-.36Z" transform="translate(0 -0.87)"/><path class="cls-3" d="M30.89,26.09l-1.6-1.86-2.23.7,1.11-3.53,1.14.36c.16-.52.43-1.36.72-2.31.23-.72.47-1.51.71-2.27l-4,.78L27.32,16c-.78-.74-4.88-4.53-9.6-6S7.58,9.44,6.54,9.63l-.38,1.2L0,5.33,20.23.87,30.56,11.7a.91.91,0,0,1,.25-.07h0c1.27-.18,2.11,0,2.5.58a2,2,0,0,1-.07,1.92l-.09.3L35,16.36l-2.59.5L30.73,22.2l1.24.39ZM29.5,23.52l1.12,1.31L31.19,23,30,22.61l2-6.29L33.77,16l-1.31-1.37.22-.7v0c.12-.23.39-.91.12-1.29s-.9-.46-1.9-.33c-.13,0-.17.06-.17.07l-.23.24L20,1.55,1.32,5.68,5.86,9.73l.2-.63.18,0c.25-.05,6.29-1.3,11.66.37a27.73,27.73,0,0,1,10,6.3l.14.13-.4,1.29,3.54-.69a.69.69,0,0,1-.24-.05,1.15,1.15,0,1,1,1.37-1.63,1.13,1.13,0,0,1,.07.88,1.08,1.08,0,0,1-.55.67.64.64,0,0,1-.19.08l-.14.46c-.29.91-.59,1.89-.86,2.76-.37,1.17-.68,2.18-.82,2.62l-.09.29-1.15-.36L28,24Zm1.78-8.74a.53.53,0,0,0-.51.38.51.51,0,0,0,0,.4.52.52,0,0,0,.32.26.53.53,0,0,0,.41,0,.5.5,0,0,0,.25-.3h0a.55.55,0,0,0,0-.4.52.52,0,0,0-.32-.26A.4.4,0,0,0,31.28,14.78Zm1-.4-1.53-1.62.49-.14c.62-.18,1-.15,1.26.07a.65.65,0,0,1,.11.68l-.16.52Zm-.33-1.26.06.07,0-.06Z" transform="translate(0 -0.87)"/></svg>