<?xml version="1.0" encoding="utf-8"?>
<!-- Generator: Adobe Illustrator 22.0.1, SVG Export Plug-In . SVG Version: 6.00 Build 0)  -->
<svg version="1.1" id="Layer_1" xmlns="http://www.w3.org/2000/svg" xmlns:xlink="http://www.w3.org/1999/xlink" x="0px" y="0px"
	 viewBox="0 0 35 29.7" style="enable-background:new 0 0 35 29.7;" xml:space="preserve">
<style type="text/css">
	.st0{fill:#FFFFFF;}
</style>
<title>business</title>
<path class="st0" d="M7.7,29.7H3.4c-0.6,0-1.1-0.5-1.1-1.1v-6h0.5c0.8-0.1,1.5-0.4,2.1-0.9l4-3.9v10.9C8.8,29.2,8.3,29.7,7.7,29.7
	C7.7,29.7,7.7,29.7,7.7,29.7z M3.3,23.6v5c0,0.1,0,0.1,0.1,0.1h0h4.3c0.1,0,0.1,0,0.1-0.1l0,0v-8.4l-2.2,2.2C5,23,4.2,23.4,3.3,23.6
	z"/>
<path class="st0" d="M15.3,29.7H11c-0.6,0-1.1-0.5-1.1-1.1V17.7l3.8,3.8c0.6,0.6,1.4,0.9,2.2,0.9h0.5v6.2
	C16.4,29.2,15.9,29.7,15.3,29.7z M10.9,20.1v8.5c0,0.1,0,0.1,0.1,0.1h0h4.3c0.1,0,0.1,0,0.1-0.1v-5.2c-0.9-0.1-1.8-0.5-2.4-1.2
	L10.9,20.1z"/>
<path class="st0" d="M22.9,29.7h-4.3c-0.6,0-1.1-0.5-1.1-1.1V22l0.2-0.1c0.2-0.1,0.4-0.3,0.5-0.4l5.7-5.7v12.9
	C24,29.2,23.5,29.7,22.9,29.7z M18.5,22.6v6c0,0.1,0,0.1,0.1,0.1l0,0h4.3c0.1,0,0.1,0,0.1-0.1l0,0V18.2l-4,4
	C18.9,22.3,18.7,22.4,18.5,22.6z"/>
<path class="st0" d="M30.5,29.7h-4.3c-0.6,0-1.1-0.5-1.1-1.1v-14L30.7,9l0.5,0.4l0.3,0.3l0.2,0.1v18.7
	C31.6,29.2,31.1,29.7,30.5,29.7z M26.1,15v13.6c0,0.1,0,0.1,0.1,0.1l0,0h4.3c0,0,0.1,0,0.1-0.1c0,0,0,0,0,0v-18L26.1,15z"/>
<path class="st0" d="M2.5,21.6C2,21.6,1.4,21.4,1,21l-0.4-0.3c-0.4-0.4-0.7-1-0.6-1.6c0-0.6,0.2-1.2,0.6-1.6l7.2-7.2
	c0.9-0.9,2.3-0.9,3.2,0l5,5L27.2,4.2l-0.7-0.7L26.1,3c-0.6-0.6-0.7-1.6-0.1-2.2c0,0,0-0.1,0.1-0.1c0.3-0.3,0.8-0.5,1.2-0.5L33.3,0
	c0.5,0,0.9,0.2,1.3,0.5c0.3,0.4,0.5,0.8,0.4,1.3l-0.1,2.5c0,1.1-0.1,2.2-0.2,3.3c0,0.5-0.2,1-0.5,1.3c-0.1,0.1-0.3,0.2-0.4,0.3
	c-0.2,0.1-0.5,0.2-0.7,0.2c-0.5,0-0.9-0.2-1.2-0.6l-1.2-1.2L17.6,20.7c-0.9,0.8-2.3,0.8-3.1,0l-5-5L4.1,21
	C3.7,21.4,3.1,21.6,2.5,21.6z M9.4,10.8c-0.3,0-0.6,0.1-0.8,0.4l-7.2,7.1C1.2,18.5,1,18.8,1,19.1c0,0.3,0.1,0.6,0.4,0.9l0.3,0.3
	c0.5,0.4,1.2,0.4,1.7,0l6-6l5.8,5.7c0.5,0.5,1.2,0.5,1.7,0L30.7,6.2l1.9,1.9c0.3,0.3,0.4,0.4,0.7,0.2c0.1,0,0.1-0.1,0.2-0.1
	c0.2-0.2,0.2-0.4,0.2-0.6c0-1.1,0.1-2.2,0.2-3.3L34,1.8c0-0.4-0.1-0.5-0.1-0.6C33.7,1.1,33.5,1,33.3,1h-0.1l-5.9,0.3
	c-0.2,0-0.4,0-0.6,0.2c0,0-0.1,0.1-0.1,0.2c-0.1,0.3,0,0.4,0.2,0.7l0.5,0.5c0.3,0.3,0.7,0.7,1,1l0.4,0.4L16,16.8l-5.8-5.7
	C10,10.9,9.7,10.8,9.4,10.8z"/>
</svg>
