<?xml version="1.0" encoding="utf-8"?>
<!-- Generator: Adobe Illustrator 22.0.1, SVG Export Plug-In . SVG Version: 6.00 Build 0)  -->
<svg version="1.1" id="Layer_1" xmlns="http://www.w3.org/2000/svg" xmlns:xlink="http://www.w3.org/1999/xlink" x="0px" y="0px"
	 viewBox="0 0 30 34.8" style="enable-background:new 0 0 30 34.8;" xml:space="preserve">
<style type="text/css">
	.st0{fill:#FFFFFF;}
</style>
<title>design</title>
<path class="st0" d="M30,0l-3.2,2.4l-3.2,7.6H21l-1-2.2h0.7c1.2,0,2.2-1,2.2-2.2V3.4H24V0h-3.3v3.4h1.1v2.3c0,0.6-0.5,1.1-1.1,1.1
	h-1.2l-1.4-3.1l1.7-0.8l-5.5-2.4L12.9,5c0-2.7-2.2-5-4.9-5C5.2,0,3,2.2,3,5C3,5,3,5,3,5c0,1.7,0.8,3.2,2.2,4.2v0.8H3.9l-0.1,0.5
	c-0.3,1.4-0.3,2.9-0.1,4.3L0,21.7l4.1,1v7.1h5.5v5h13.2V27c3.8-2.8,6-7.3,6-12v-2.1c0-0.8-0.1-1.6-0.2-2.4l-0.1-0.5h-1l2.5-6L30,0z
	 M21.8,2.3V1.1h1.1v1.1H21.8z M19.8,10.1h-2l-1-2.2h2.1L19.8,10.1z M15,1.9l2.2,1l-0.5,0.3l1.6,3.6h-2.1l-1.3-3L14.4,4L15,1.9z
	 M16.5,10.1H14V9c0-0.6,0.5-1.1,1.1-1.1h0.4L16.5,10.1z M14.3,5.3L15,6.8c-1.2,0.1-2.1,1.1-2.1,2.2v1.1h-2.2V9.3
	c1.1-0.8,1.9-1.9,2.1-3.2L14.3,5.3z M4.1,5.1C4,2.9,5.7,1.1,7.8,1s3.9,1.5,4.1,3.7c0,0.1,0,0.3,0,0.4c0,1.4-0.7,2.7-1.9,3.4L9.6,8.6
	v1.5H8.5V6.6c0.7-0.2,1.1-0.9,1.1-1.6c0-0.9-0.7-1.7-1.7-1.7C7.1,3.4,6.3,4.1,6.3,5c0,0.7,0.5,1.4,1.2,1.6v3.5H6.3V8.6L6.1,8.5
	C4.9,7.7,4.2,6.5,4.1,5.1z M8,5.6C7.7,5.6,7.5,5.3,7.5,5c0-0.3,0.2-0.5,0.5-0.5c0.3,0,0.5,0.3,0.5,0.6C8.5,5.4,8.3,5.6,8,5.6z
	 M27.7,11.2c0.1,0.6,0.1,1.1,0.1,1.7v2.1c0,4.5-2.2,8.7-5.8,11.3l-0.2,0.2v7.3h-11v-5H5.2v-6.8l-3.6-0.8l3.2-5.9v-0.2
	c-0.2-1.2-0.2-2.4,0-3.7H27.7z M26.3,10.1h-1.5l2.7-6.5l1.2,0.6L26.3,10.1z M28.9,3l-0.6-0.3l0.6-0.5V3z"/>
<path class="st0" d="M9.1,14.6c-0.9,0-1.6-0.7-1.6-1.5c0-0.1,0-0.1,0-0.2H6.3c-0.1,1.5,1.1,2.8,2.6,2.9s2.8-1.1,2.9-2.6
	c0-0.1,0-0.2,0-0.3h-1.1c0.1,0.9-0.6,1.6-1.4,1.7C9.2,14.6,9.2,14.6,9.1,14.6L9.1,14.6z"/>
</svg>
