<?xml version="1.0" encoding="utf-8"?>
<!-- Generator: Adobe Illustrator 22.0.1, SVG Export Plug-In . SVG Version: 6.00 Build 0)  -->
<svg version="1.1" id="Layer_1" xmlns="http://www.w3.org/2000/svg" xmlns:xlink="http://www.w3.org/1999/xlink" x="0px" y="0px"
	 viewBox="0 0 35 32.2" style="enable-background:new 0 0 35 32.2;" xml:space="preserve">
<style type="text/css">
	.st0{fill:#FFFFFF;}
</style>
<title>development</title>
<path class="st0" d="M31.7,0H3.3C1.5,0,0,1.5,0,3.3v18.9c0,1.8,1.5,3.3,3.3,3.3h9.4c-0.1,1.8-0.4,3.6-1,5.3H9.4
	c-0.4,0-0.7,0.4-0.7,0.8c0,0.4,0.3,0.6,0.7,0.7h16.2c0.4,0,0.7-0.4,0.7-0.8c0-0.4-0.3-0.6-0.7-0.7h-2.3c-0.6-1.7-0.9-3.5-1-5.3h9.4
	c1.8,0,3.3-1.5,3.3-3.3V3.3C35,1.5,33.5,0,31.7,0z M1.5,3.3c0-1,0.8-1.8,1.8-1.8h28.4c1,0,1.8,0.8,1.8,1.8v17.2h-32L1.5,3.3z
	 M21.7,30.7h-8.4c0.5-1.7,0.8-3.5,0.9-5.3h6.6C20.9,27.2,21.2,29,21.7,30.7z M33.5,22.2c0,1-0.8,1.8-1.8,1.8H3.3
	c-1,0-1.8-0.8-1.8-1.8V22h32L33.5,22.2L33.5,22.2z"/>
<path class="st0" d="M27.5,17.5H11.3c-0.4,0-0.8,0.3-0.8,0.8s0.3,0.8,0.8,0.8h16.2c0.4,0,0.8-0.3,0.8-0.8S28,17.5,27.5,17.5z"/>
<path class="st0" d="M7.6,17.5H7.5c-0.4,0-0.8,0.3-0.8,0.8S7,19,7.5,19h0.1c0.4,0,0.8-0.3,0.8-0.8S8,17.5,7.6,17.5z"/>
<path class="st0" d="M28,9.4l-5.1-4.4c-0.3-0.3-0.8-0.2-1.1,0.1c-0.3,0.3-0.2,0.8,0.1,1.1l4.4,3.8l-4.4,3.8
	c-0.3,0.3-0.3,0.8-0.1,1.1c0.3,0.3,0.8,0.3,1.1,0.1l5.1-4.3c0.2-0.1,0.3-0.4,0.3-0.6C28.3,9.8,28.2,9.6,28,9.4z"/>
<path class="st0" d="M7,10.6l5.1,4.4c0.3,0.3,0.8,0.2,1.1-0.1c0.3-0.3,0.2-0.8-0.1-1.1L8.6,10l4.4-3.8c0.3-0.3,0.3-0.7,0.1-1.1
	c-0.3-0.3-0.7-0.4-1.1-0.1c0,0,0,0,0,0L7,9.4C6.8,9.6,6.7,9.8,6.7,10C6.7,10.2,6.8,10.5,7,10.6z"/>
<path class="st0" d="M15.4,16.6c0.1,0,0.2,0,0.2,0c0.3,0,0.6-0.2,0.7-0.5l3.8-11.7C20.2,4,20,3.5,19.6,3.4c-0.4-0.1-0.7,0.1-0.9,0.4
	l-3.8,11.8C14.7,16.1,15,16.5,15.4,16.6z"/>
</svg>
