<?xml version="1.0" encoding="utf-8"?>
<!-- Generator: Adobe Illustrator 22.0.1, SVG Export Plug-In . SVG Version: 6.00 Build 0)  -->
<svg version="1.1" id="Layer_1" xmlns="http://www.w3.org/2000/svg" xmlns:xlink="http://www.w3.org/1999/xlink" x="0px" y="0px"
	 viewBox="0 0 33.2 34.9" style="enable-background:new 0 0 33.2 34.9;" xml:space="preserve">
<style type="text/css">
	.st0{fill:#FFFFFF;}
</style>
<title>health22</title>
<path class="st0" d="M14.4,21.1l-0.9-10.4c0-0.1-0.1-0.2-0.2-0.2c-0.1,0-0.2,0-0.2,0.1l-2.6,7.3H0.1v-2.8c0-2.4,2-4.4,4.4-4.4h6.3
	V4.5c0-2.4,2-4.4,4.4-4.4H18c2.4,0,4.4,2,4.4,4.4v6.3h6.3c2.4,0,4.4,2,4.4,4.4v2.8H22c-0.1,0-0.2,0.1-0.2,0.1L21,20.7l-1.2-8.5
	c0-0.1-0.1-0.2-0.2-0.2c-0.1,0-0.2,0.1-0.2,0.2l-1.6,6.9l-1.1-4.6c0-0.1-0.1-0.2-0.2-0.2c-0.1,0-0.2,0.1-0.2,0.1L14.4,21.1z
	 M19.6,11.5L19.6,11.5c0.4,0,0.7,0.3,0.7,0.6l0.8,6l0.1-0.3c0.1-0.3,0.4-0.5,0.7-0.5h10.5v-2.2c0-2.1-1.7-3.8-3.9-3.9h-6.8V4.5
	c0-2.1-1.7-3.8-3.9-3.8h-2.8c-2.1,0-3.8,1.7-3.9,3.8v6.8H4.5c-2.1,0-3.8,1.7-3.8,3.9v2.2h9.4l2.5-7c0.1-0.4,0.6-0.6,0.9-0.5
	c0.3,0.1,0.5,0.4,0.5,0.7l0.6,7.4l1-3.7c0.1-0.4,0.5-0.7,0.9-0.6c0.3,0.1,0.5,0.3,0.6,0.6l0.5,2.3l1.1-4.6
	C18.9,11.7,19.2,11.5,19.6,11.5z"/>
<path class="st0" d="M14.4,21.8l-1-11.1c0,0,0-0.1-0.1-0.1c0,0-0.1,0-0.1,0.1l-2.7,7.4H0v-2.9c0-2.5,2-4.5,4.5-4.5h6.2V4.5
	c0-2.5,2-4.5,4.5-4.5H18c2.5,0,4.5,2,4.5,4.5v6.1h6.1c2.5,0,4.5,2,4.5,4.5V18H22c0,0-0.1,0-0.1,0.1l-1,3.2l-1.3-9c0,0,0-0.1-0.1-0.1
	l0,0c0,0-0.1,0-0.1,0.1l-1.8,7.4l-1.2-5.1c0,0,0-0.1-0.1-0.1l0,0c0,0-0.1,0-0.1,0.1L14.4,21.8z M13.4,10.4L13.4,10.4
	c0.2,0,0.3,0.1,0.3,0.3l0.8,9.8l1.6-5.9c0.1-0.2,0.2-0.3,0.4-0.2c0.1,0,0.2,0.1,0.2,0.2l0.9,4.1l1.5-6.3c0-0.1,0.2-0.2,0.3-0.3l0,0
	c0.2,0,0.3,0.1,0.3,0.3l1.1,7.9l0.6-2.1c0-0.1,0.2-0.2,0.3-0.2h11v-2.6c0-2.4-1.9-4.3-4.3-4.3h-6.4V4.5c0-2.4-1.9-4.3-4.3-4.3h-2.8
	c-2.4,0-4.3,1.9-4.3,4.3l0,0v6.4H4.5c-2.4,0-4.3,1.9-4.3,4.3c0,0,0,0,0,0v2.7h10.2l2.6-7.3C13.1,10.5,13.2,10.4,13.4,10.4L13.4,10.4
	z M21.1,18.8l-0.9-6.6c0-0.3-0.3-0.5-0.6-0.5l0,0c-0.3,0-0.6,0.2-0.6,0.5l-1.2,5.1l-0.6-2.8c-0.1-0.3-0.4-0.5-0.7-0.5
	c-0.2,0.1-0.4,0.2-0.5,0.5l-1.2,4.4L14,10.6c0-0.3-0.2-0.5-0.5-0.6c-0.3,0-0.6,0.1-0.7,0.4l-2.5,7.1H0.6v-2.4c0-2.2,1.8-4,4-4h6.7
	V4.5c0-2.2,1.8-4,4-4H18c2.2,0,4,1.8,4,4v6.7h6.7c2.2,0,4,1.8,4,4v2.3H22c-0.3,0-0.5,0.2-0.6,0.4L21.1,18.8z M19.6,11.4L19.6,11.4
	c0.4,0,0.8,0.3,0.8,0.8l0.8,5.5c0.2-0.3,0.4-0.4,0.8-0.4h10.4v-2.1c0-2.1-1.7-3.7-3.7-3.7h-7V4.5c0-2.1-1.7-3.7-3.7-3.7h-2.8
	c-2.1,0-3.7,1.7-3.7,3.7v7H4.5c-2.1,0-3.7,1.7-3.7,3.7v2.1h9.3l2.5-6.9c0.1-0.4,0.5-0.6,0.9-0.6c0.4,0,0.7,0.4,0.8,0.8l0.6,6.7
	l0.8-3c0.1-0.4,0.5-0.6,0.9-0.6l0,0c0.4,0,0.7,0.3,0.8,0.7l0.4,1.8l1-4.1C18.8,11.8,19.2,11.4,19.6,11.4z"/>
<path class="st0" d="M18,34.7h-2.8c-2.4,0-4.4-2-4.4-4.4v-6.3H4.5c-2.1,0-4-1.5-4.3-3.6l0-0.3h10.5c0.1,0,0.2-0.1,0.2-0.1l2.4-6.6
	L14.1,24c0,0.1,0.1,0.2,0.2,0.2l0,0c0.1,0,0.2-0.1,0.2-0.1l1.9-7l1.1,4.7c0,0.1,0.1,0.2,0.2,0.2c0.1,0,0.2-0.1,0.2-0.2l1.6-6.6
	l1.2,8.3c0,0.1,0.1,0.2,0.2,0.2l0,0c0.1,0,0.2,0,0.2-0.1l1-3.4H33L33,20.4c-0.3,2.1-2.2,3.7-4.3,3.7h-6.3v6.3
	C22.3,32.8,20.4,34.7,18,34.7z M0.8,20.7c0.4,1.7,2,2.9,3.7,2.9h6.8v6.8c0,2.1,1.7,3.8,3.9,3.9H18c2.1,0,3.8-1.7,3.9-3.9v-6.8h6.8
	c1.8,0,3.3-1.2,3.7-2.9h-9.8l-0.9,3c-0.1,0.3-0.4,0.5-0.8,0.5c-0.4,0-0.6-0.3-0.7-0.6l-0.8-5.4l-0.9,3.8c-0.1,0.4-0.5,0.7-0.9,0.6
	c-0.3-0.1-0.5-0.3-0.6-0.6l-0.6-2.6l-1.3,4.8c-0.1,0.3-0.4,0.6-0.8,0.5c-0.4,0-0.7-0.3-0.7-0.7l-0.7-8.1l-1.5,4.3
	c-0.1,0.3-0.4,0.5-0.7,0.5L0.8,20.7z"/>
<path class="st0" d="M18,34.9h-2.8c-2.5,0-4.5-2-4.5-4.5v-6.1H4.5c-2.2,0-4.1-1.6-4.4-3.7L0,20h10.7c0,0,0.1,0,0.1,0l2.6-7.2l1,11.2
	c0,0,0,0.1,0.1,0.1c0,0,0.1,0,0.1-0.1l2.1-7.4l1.2,5.1c0,0,0.1,0.1,0.1,0c0,0,0,0,0,0l1.7-7.3l1.3,9c0,0,0,0.1,0.1,0.1
	c0,0,0.1,0,0.1,0l1.1-3.5h11.1l-0.1,0.5c-0.3,2.2-2.2,3.8-4.5,3.8h-6.2v6.1C22.5,32.8,20.5,34.9,18,34.9C18,34.9,18,34.9,18,34.9z
	 M0.3,20.3v0.2c0.4,2,2.1,3.5,4.2,3.5h6.4v6.4c0,2.4,1.9,4.3,4.3,4.3H18c2.4,0,4.3-1.9,4.3-4.3v-6.4h6.4c2.1,0,3.9-1.5,4.2-3.6v-0.2
	H22.2l-1,3.3c0,0.1-0.2,0.2-0.3,0.2l0,0c-0.2,0-0.3-0.1-0.3-0.3l-1.1-7.6l-1.4,6c0,0.2-0.2,0.3-0.3,0.3c-0.2,0-0.3-0.1-0.3-0.3
	l-1-4.2l-1.8,6.5c0,0.1-0.2,0.2-0.3,0.2c-0.2,0-0.3-0.1-0.3-0.3l-0.9-10.1L11,20c0,0.1-0.2,0.2-0.3,0.2H0.3z M18,34.3h-2.8
	c-2.2,0-4-1.8-4-4v-6.7H4.5c-1.8,0-3.4-1.2-3.8-3v-0.1h10c0.3,0,0.5-0.2,0.6-0.4l1.7-4.8l0.8,8.7c0,0.3,0.3,0.6,0.6,0.6
	c0.3,0,0.6-0.2,0.6-0.5l1.5-5.3l0.7,3c0.1,0.3,0.4,0.5,0.8,0.5c0.2-0.1,0.4-0.2,0.5-0.5l1.1-4.5l0.9,6.1c0.1,0.3,0.4,0.6,0.7,0.5
	c0.2,0,0.4-0.2,0.5-0.4l1-3.1h10.1v0.2c-0.5,1.8-2,3-3.9,3H22v6.7C22,32.5,20.2,34.3,18,34.3C18,34.3,18,34.3,18,34.3z M1,20.8
	c0.5,1.5,1.9,2.6,3.5,2.6h6.9v7c0,2.1,1.7,3.7,3.7,3.7H18c2.1,0,3.7-1.7,3.7-3.7v-6.6c-0.2,0.3-0.5,0.5-0.9,0.5
	c-0.4,0-0.7-0.3-0.8-0.8l-0.7-4.8l-0.8,3.1c-0.1,0.4-0.4,0.7-0.9,0.7c-0.4,0-0.8-0.3-0.9-0.7l-0.5-2.1l-1.2,4.4
	c-0.1,0.4-0.5,0.7-0.9,0.6c-0.4,0-0.8-0.4-0.8-0.8l-0.6-7.6l-1.3,3.7c-0.1,0.4-0.4,0.6-0.8,0.6H1z M21.8,23.4h6.8
	c1.6,0,3.1-1.1,3.6-2.7h-9.6L21.8,23.4z"/>
</svg>
