<?xml version="1.0" encoding="utf-8"?>
<!-- Generator: Adobe Illustrator 22.0.1, SVG Export Plug-In . SVG Version: 6.00 Build 0)  -->
<svg version="1.1" id="Layer_1" xmlns="http://www.w3.org/2000/svg" xmlns:xlink="http://www.w3.org/1999/xlink" x="0px" y="0px"
	 viewBox="0 0 35 29.2" style="enable-background:new 0 0 35 29.2;" xml:space="preserve">
<style type="text/css">
	.st0{fill:#FFFFFF;}
</style>
<title>it and software</title>
<path class="st0" d="M33.1,0L33.1,0H1.9l0,0C0.9,0.1,0.1,0.9,0,1.9v20.5c0,0.4,0.1,0.7,0.3,1c0.3,0.7,1,1.1,1.8,1h11.3v2.8h-2.1
	c-0.5,0.1-0.9,0.5-0.8,1c0,0.4,0.4,0.8,0.8,0.8h12.6c0.5,0.1,1-0.3,1-0.8c0.1-0.5-0.3-1-0.8-1c-0.1,0-0.1,0-0.2,0h-2.1v-2.8h11.3
	c0.7,0,1.4-0.4,1.8-1c0.2-0.3,0.3-0.6,0.3-1V1.9C34.9,0.9,34.1,0.1,33.1,0z M33.1,2v20.4c0,0.1,0,0.2-0.2,0.2H2
	c-0.1,0-0.2,0-0.2-0.1c0,0,0,0,0,0V1.9h31.2V2z"/>
</svg>
