<?xml version="1.0" encoding="utf-8"?>
<!-- Generator: Adobe Illustrator 22.0.1, SVG Export Plug-In . SVG Version: 6.00 Build 0)  -->
<svg version="1.1" id="Layer_1" xmlns="http://www.w3.org/2000/svg" xmlns:xlink="http://www.w3.org/1999/xlink" x="0px" y="0px"
	 viewBox="0 0 35 32.9" style="enable-background:new 0 0 35 32.9;" xml:space="preserve">
<style type="text/css">
	.st0{fill:#FFFFFF;}
</style>
<title>lifestyle</title>
<path class="st0" d="M17.7,18c-0.2,0-0.5,0-0.7-0.1c-1.5-0.6-2.3-2.3-1.9-3.9c0.2-0.5,0.5-0.9,1-1.1c0.5-0.2,1-0.2,1.5-0.1
	c0.7,0.3,1.3,0.9,1.7,1.6c0.4,0.7,0.4,1.5,0.2,2.3c-0.2,0.5-0.5,0.9-1,1.1C18.3,18,18,18,17.7,18z M16.9,12.9
	c-0.2,0-0.5,0.1-0.7,0.2c-0.4,0.2-0.7,0.6-0.9,1c-0.2,0.7-0.2,1.5,0.2,2.1c0.3,0.7,0.9,1.2,1.5,1.5c0.4,0.2,0.9,0.2,1.3,0l0,0
	c0.4-0.2,0.7-0.6,0.9-1c0.4-1.5-0.3-3-1.7-3.6C17.4,13,17.2,13,16.9,12.9z"/>
<path class="st0" d="M17,32.9h-3.8l0.1-0.2c1.1-2,1.8-4.3,1.9-6.6c0.2-3.5-0.9-8.6-7.1-13.2l-0.6-0.4l0.7,0.2c2.8,1,5.4,2.6,7.4,4.8
	c1,1,1.8,2.1,2.6,3.3c0.8-0.9,1.5-1.9,2-3c1.3-2.4,1.7-5.2,1.4-7.9l-0.2-1.1l0.4,1c0.8,2.3,1.1,4.9,0.7,7.3
	c-0.3,2.6-0.9,5.1-1.8,7.5c-1,2.8-2.2,5.6-3.7,8.2V32.9z M13.6,32.7h3.2c1.4-2.6,2.6-5.3,3.6-8.1c1.4-3.9,2.6-9.2,1.4-13.6
	c0.1,2.4-0.4,4.7-1.5,6.9c-0.6,1.2-1.3,2.2-2.1,3.2l-0.1,0.1L18,21c0-0.1-3.5-5.8-9.2-7.9c2.3,1.7,4.1,3.9,5.4,6.5
	c0.9,2,1.4,4.3,1.2,6.5C15.3,28.4,14.7,30.6,13.6,32.7L13.6,32.7z"/>
<path class="st0" d="M17.6,8V7.7c0-0.3,0-0.6,0-0.8c0-0.6-0.1-1.3-0.2-1.9c-0.1,0.6-0.2,1.3-0.2,1.9c0,0.3,0,0.6,0,0.8V8L17,7.7
	c-0.6-0.7-1-1.7-1-2.7c0.1-1.1,0.6-2.2,1.4-2.9l0.1-0.1l0.1,0.1C18.4,2.9,18.9,4,19,5.1c-0.1,1-0.5,1.9-1.1,2.7L17.6,8z M17.5,3.7
	l0.1,0.5c0.2,0.9,0.3,1.7,0.3,2.6c0,0.2,0,0.3,0,0.5c0.5-0.6,0.8-1.4,0.8-2.2c-0.1-1-0.5-2-1.3-2.7c-0.7,0.7-1.2,1.7-1.2,2.7
	c0,0.8,0.3,1.6,0.8,2.2c0-0.1,0-0.3,0-0.5c0-0.9,0.1-1.8,0.3-2.6L17.5,3.7z"/>
<path class="st0" d="M9.9,11.8c-0.7,0-1.3-0.1-1.9-0.4c-0.9-0.6-1.6-1.6-1.8-2.7V8.6h0.1c1.1-0.3,2.2-0.2,3.3,0.3
	c0.8,0.6,1.4,1.4,1.7,2.3l0.1,0.3l-0.3-0.2c-0.3-0.2-0.5-0.3-0.7-0.5c-0.6-0.3-1.2-0.6-1.8-0.8c0.5,0.4,1,0.8,1.6,1.1
	c0.3,0.2,0.5,0.3,0.8,0.4l0.4,0.2l-0.4,0.1C10.6,11.8,10.2,11.9,9.9,11.8z M6.5,8.8c0.3,1,0.9,1.8,1.7,2.4l0,0
	c0.7,0.4,1.5,0.5,2.3,0.4l-0.4-0.2c-0.7-0.4-1.4-1-2.1-1.6L7.6,9.4l0.5,0.1c0.8,0.2,1.6,0.6,2.4,1l0.4,0.3c-0.3-0.7-0.9-1.4-1.5-1.8
	C8.5,8.6,7.4,8.5,6.5,8.8z"/>
<path class="st0" d="M27.3,21.9c-0.6,0-1.3-0.1-1.9-0.5c-0.8-0.5-1.4-1.4-1.7-2.3l-0.1-0.4l0.3,0.2c0.2,0.2,0.5,0.3,0.7,0.5
	c0.6,0.3,1.2,0.6,1.8,0.8c-0.5-0.4-1-0.8-1.6-1.1c-0.2-0.1-0.5-0.3-0.8-0.4l-0.3-0.2l0.4-0.1c1-0.2,2-0.1,2.9,0.4l0,0
	c0.9,0.6,1.6,1.6,1.9,2.7v0.1h-0.1C28.3,21.9,27.8,21.9,27.3,21.9z M24.1,19.5c0.3,0.8,0.8,1.4,1.5,1.8c0.9,0.4,2,0.5,2.9,0.3
	c-0.3-1-0.9-1.8-1.7-2.4c-0.7-0.4-1.5-0.5-2.3-0.4l0.4,0.2c0.8,0.4,1.5,1,2.1,1.6l0.4,0.3l-0.5-0.1c-0.8-0.3-1.7-0.6-2.4-1
	C24.4,19.6,24.3,19.5,24.1,19.5L24.1,19.5z"/>
<path class="st0" d="M7.7,21.9c-0.5,0-0.9-0.1-1.4-0.2H6.2v-0.1c0.3-1.1,0.9-2.1,1.8-2.7c0.9-0.4,1.9-0.6,2.9-0.3l0.4,0.1l-0.3,0.2
	c-0.2,0.1-0.5,0.2-0.8,0.4c-0.6,0.3-1.1,0.7-1.6,1.1c0.6-0.2,1.2-0.5,1.8-0.8c0.2-0.1,0.5-0.3,0.7-0.5l0.3-0.2l-0.1,0.4
	c-0.3,1-0.9,1.8-1.7,2.3C8.9,21.8,8.3,22,7.7,21.9z M6.5,21.6c1,0.3,2,0.2,2.9-0.3c0.7-0.4,1.2-1.1,1.5-1.8l-0.4,0.3
	c-0.8,0.4-1.6,0.8-2.4,1l-0.5,0.1L8,20.5c0.6-0.6,1.3-1.1,2.1-1.6l0.4-0.2c-0.8-0.1-1.6,0-2.3,0.4C7.3,19.7,6.7,20.5,6.5,21.6
	L6.5,21.6z"/>
<path class="st0" d="M25.1,11.8c-0.3,0-0.7,0-1-0.1l-0.4-0.1l0.4-0.2c0.2-0.1,0.5-0.2,0.8-0.4c0.6-0.3,1.1-0.7,1.6-1.1
	c-0.6,0.2-1.2,0.5-1.8,0.8c-0.3,0.2-0.5,0.3-0.7,0.5l-0.3,0.2l0.1-0.4c0.3-1,0.9-1.8,1.7-2.3c1-0.5,2.2-0.6,3.3-0.3h0.1v0.1
	c-0.3,1.1-0.9,2.1-1.9,2.7C26.4,11.7,25.8,11.9,25.1,11.8z M24.5,11.6c0.8,0.1,1.6,0,2.3-0.4c0.8-0.6,1.4-1.4,1.7-2.4
	c-1-0.3-2-0.2-2.9,0.3c-0.7,0.4-1.2,1.1-1.5,1.8l0.4-0.3c0.8-0.4,1.6-0.8,2.4-1l0.5-0.1l-0.4,0.4c-0.7,0.6-1.4,1.1-2.1,1.6
	L24.5,11.6z"/>
<path class="st0" d="M23.9,13.6c-0.1,0-0.2,0-0.3,0h-0.1l0.1-0.1l0.2-0.1c0.2-0.1,0.3-0.2,0.5-0.3c-0.2,0.1-0.4,0.1-0.5,0.2
	l-0.2,0.1l-0.1,0.1v-0.1c0.1-0.3,0.3-0.6,0.5-0.7c0.3-0.2,0.7-0.2,1-0.1l0,0l0,0c-0.1,0.3-0.3,0.6-0.5,0.8
	C24.3,13.6,24.1,13.6,23.9,13.6z M23.7,13.5c0.2,0,0.5,0,0.7-0.1c0.2-0.2,0.4-0.4,0.5-0.7c-0.3-0.1-0.6,0-0.9,0.1
	c-0.2,0.1-0.4,0.3-0.4,0.5l0.1-0.1c0.2-0.1,0.5-0.2,0.7-0.3h0.1l-0.1,0.1c-0.2,0.2-0.4,0.3-0.6,0.5L23.7,13.5z"/>
<path class="st0" d="M19.6,9.1c0-0.1-0.1-0.2-0.1-0.3V8.7l0.1,0.1l0.2,0.1C20,9,20.1,9.1,20.3,9.1C20.2,9,20,8.9,19.9,8.8l-0.2-0.1
	h-0.1h0.1c0.3-0.1,0.6,0,0.8,0.1C20.8,9,21,9.3,21,9.6l0,0l0,0c-0.3,0.1-0.7,0.1-1-0.1C19.9,9.4,19.7,9.3,19.6,9.1z M19.6,8.9
	c0.1,0.2,0.2,0.4,0.4,0.5c0.3,0.1,0.6,0.1,0.9,0.1c-0.1-0.3-0.3-0.5-0.5-0.7c-0.2-0.1-0.5-0.1-0.7-0.1l0.1,0.1
	c0.2,0.1,0.4,0.3,0.6,0.4l0.1,0.1h-0.1C20.2,9.2,20,9.1,19.8,9L19.6,8.9z"/>
<path class="st0" d="M16.1,10.7c-0.1,0-0.2,0.1-0.3,0.1h-0.1l0.1-0.1l0.2-0.2c0.1-0.2,0.2-0.3,0.3-0.5c-0.1,0.1-0.3,0.3-0.4,0.4
	c-0.1,0.1-0.1,0.1-0.1,0.2l-0.1,0.1v-0.1c0-0.3,0-0.6,0.2-0.8c0.2-0.2,0.5-0.4,0.9-0.4l0,0l0,0c0.1,0.3,0,0.7-0.2,0.9
	C16.4,10.5,16.3,10.6,16.1,10.7z M15.9,10.7c0.2-0.1,0.4-0.2,0.6-0.4c0.2-0.3,0.2-0.6,0.2-0.9c-0.3,0-0.6,0.2-0.8,0.4
	c-0.1,0.2-0.2,0.4-0.2,0.7l0.1-0.1c0.2-0.2,0.3-0.4,0.5-0.6l0.1-0.1v0.1c-0.1,0.2-0.2,0.5-0.4,0.7L15.9,10.7z"/>
<path class="st0" d="M12.5,6.9l-0.4-0.1c-1.3-0.4-2.4-1.2-3.1-2.3C8.4,3.1,8.3,1.6,8.7,0.1V0h0.1c1.5,0.4,2.7,1.2,3.6,2.5
	C13,3.7,13.2,5,12.9,6.3l-0.1,0.4l-0.2-0.3c-0.2-0.4-0.4-0.7-0.5-1c-0.5-0.8-1-1.6-1.6-2.3c0.3,0.9,0.7,1.8,1.2,2.6
	c0.2,0.3,0.4,0.6,0.6,1L12.5,6.9z M8.9,0.3c-0.4,1.3-0.2,2.8,0.4,4c0.6,1,1.5,1.7,2.6,2.1l-0.4-0.7c-0.6-1-1.1-2.1-1.4-3.2L9.9,2
	l0.3,0.3c0.8,0.9,1.5,1.8,2.1,2.8c0.1,0.2,0.3,0.4,0.4,0.7c0.2-1.1,0-2.3-0.5-3.3C11.4,1.5,10.3,0.7,8.9,0.3z"/>
<path class="st0" d="M26.3,30.3h-0.1c-1.5-0.4-2.7-1.2-3.6-2.5c-0.6-1.2-0.8-2.5-0.5-3.8l0.1-0.4l0.2,0.3c0.2,0.3,0.3,0.7,0.5,1
	c0.5,0.8,1,1.6,1.7,2.3c-0.3-0.9-0.7-1.8-1.2-2.6c-0.2-0.3-0.4-0.6-0.6-1l-0.2-0.3l0.4,0.1c1.3,0.4,2.4,1.2,3.1,2.3
	c0.6,1.4,0.8,2.9,0.4,4.3L26.3,30.3z M22.3,24.4c-0.2,1.1,0,2.3,0.5,3.3c0.8,1.1,2,2,3.3,2.3c0.4-1.3,0.2-2.8-0.4-4
	c-0.6-0.9-1.5-1.7-2.6-2.1c0.1,0.2,0.3,0.5,0.4,0.7c0.6,1,1.1,2.1,1.5,3.2l0.1,0.5l-0.4-0.4c-0.8-0.9-1.5-1.8-2.1-2.8L22.3,24.4z"/>
<path class="st0" d="M4,17.1c-1.5-0.1-2.9-0.8-3.9-1.9L0,15.2l0.1-0.1c1-1.1,2.4-1.8,3.9-1.9c1.3,0.1,2.6,0.6,3.6,1.5L7.8,15H7.5
	c-0.5,0-0.8,0-1.2,0c-1,0-1.9,0.1-2.8,0.3c0.9,0.2,1.9,0.3,2.8,0.3c0.3,0,0.7,0,1.2,0h0.4l-0.3,0.2C6.6,16.6,5.3,17.1,4,17.1z
	 M0.3,15.2c1,1,2.3,1.6,3.7,1.7c1.1-0.1,2.2-0.5,3.1-1.2H6.3c-1.2,0-2.3-0.1-3.5-0.4l-0.5-0.1L2.8,15c1.1-0.2,2.3-0.4,3.5-0.4h0.8
	c-0.9-0.7-2-1.1-3.1-1.2C2.6,13.6,1.3,14.2,0.3,15.2z"/>
<path class="st0" d="M31,17.1c-1.3-0.1-2.6-0.6-3.5-1.5l-0.3-0.2h0.4c0.4,0,0.8,0,1.1,0c1,0,1.9-0.1,2.9-0.3
	c-0.9-0.1-1.9-0.2-2.8-0.1c-0.4,0-0.7,0-1.1,0h-0.4l0.3-0.2c1-0.9,2.2-1.5,3.5-1.5c1.5,0.1,2.9,0.8,3.9,1.9l0.1,0.1l-0.1,0.1
	C33.9,16.3,32.5,17,31,17.1z M27.9,15.6c0.9,0.7,1.9,1.2,3.1,1.2c1.4-0.1,2.7-0.7,3.7-1.7c-1-1-2.3-1.6-3.7-1.7
	c-1.1,0.1-2.2,0.5-3.1,1.2h0.8c1.2,0,2.3,0.1,3.5,0.4l0.5,0.1l-0.5,0.1c-1.1,0.3-2.3,0.4-3.5,0.4L27.9,15.6z"/>
<path class="st0" d="M8.8,30.3v-0.1c-0.4-1.4-0.3-3,0.3-4.3c0.7-1.1,1.8-1.9,3.1-2.3l0.3-0.1l-0.2,0.3c-0.2,0.3-0.4,0.6-0.6,1
	c-0.5,0.8-0.9,1.7-1.2,2.6c0.6-0.8,1.1-1.6,1.6-2.4l0,0c0.2-0.4,0.4-0.7,0.5-1l0.2-0.3l0.1,0.4c0.3,1.3,0.1,2.6-0.4,3.8
	c-0.9,1.2-2.1,2.1-3.6,2.5L8.8,30.3z M11.9,23.9c-1.1,0.4-2,1.1-2.6,2.1c-0.6,1.2-0.7,2.7-0.4,4c1.3-0.4,2.5-1.2,3.3-2.3
	c0.5-1,0.7-2.2,0.5-3.3c-0.1,0.2-0.2,0.4-0.4,0.7l0,0c-0.6,1-1.3,2-2.1,2.8l-0.3,0.4l0.1-0.5c0.4-1.1,0.8-2.2,1.4-3.2
	C11.6,24.4,11.8,24.1,11.9,23.9z"/>
<path class="st0" d="M22.5,6.9l0.2-0.3c0.2-0.3,0.4-0.7,0.6-1c0.5-0.8,0.9-1.7,1.2-2.6c-0.6,0.7-1.2,1.5-1.7,2.3
	c-0.2,0.3-0.4,0.7-0.5,1l-0.2,0.4l-0.1-0.4C21.8,5,22,3.7,22.6,2.5c0.8-1.2,2.1-2.1,3.6-2.5h0.1v0.1c0.4,1.4,0.3,3-0.4,4.3
	c-0.7,1.1-1.8,1.9-3,2.3L22.5,6.9z M25.1,2L25,2.5c-0.4,1.1-0.8,2.2-1.4,3.2c-0.1,0.2-0.3,0.4-0.4,0.7c1.1-0.4,2-1.1,2.6-2.1
	c0.6-1.2,0.7-2.7,0.4-4c-1.3,0.4-2.5,1.2-3.3,2.3c-0.5,1-0.7,2.2-0.5,3.3c0.1-0.2,0.2-0.4,0.4-0.7l0,0c0.6-1,1.3-2,2.1-2.8L25.1,2z"
	/>
</svg>
