<?xml version="1.0" encoding="utf-8"?>
<!-- Generator: Adobe Illustrator 22.0.1, SVG Export Plug-In . SVG Version: 6.00 Build 0)  -->
<svg version="1.1" id="Layer_1" xmlns="http://www.w3.org/2000/svg" xmlns:xlink="http://www.w3.org/1999/xlink" x="0px" y="0px"
	 viewBox="0 0 35 26.3" style="enable-background:new 0 0 35 26.3;" xml:space="preserve">
<style type="text/css">
	.st0{fill:#FFFFFF;}
</style>
<title>marketing</title>
<path class="st0" d="M25.7,7.2V0.9c0-0.5-0.4-0.9-0.9-0.9c-0.2,0-0.3,0.1-0.5,0.2C18,4.5,14.4,5,12,5H5c-2.8,0-5,2.2-5,5v1.9
	c0,2.8,2.2,5,5,5h3.4l3.6,8.8c0.1,0.3,0.4,0.5,0.8,0.5c0.1,0,0.2,0,0.3-0.1c0.4-0.2,0.7-0.7,0.5-1.1c0,0,0,0,0,0l-3.4-8.1H12
	c8.5,0,12,4.5,12.1,4.7c0.2,0.2,0.4,0.4,0.7,0.4c0.1,0,0.2,0,0.3,0c0.4-0.1,0.6-0.5,0.6-0.8v-6.3c2.1-0.5,3.4-2.6,2.9-4.7
	C28.3,8.7,27.1,7.5,25.7,7.2L25.7,7.2z M1.8,11.9v-1.9c0-1.8,1.5-3.3,3.3-3.3h3.1v8.4H5C3.2,15.2,1.7,13.7,1.8,11.9z M23.9,19
	c-1.9-1.6-5.8-3.8-11.9-3.8H9.8V6.8H12c2.5,0,6.1-0.5,12-4.3L23.9,19z M25.7,13V9c1.1,0.5,1.6,1.8,1.1,2.9
	C26.5,12.4,26.1,12.7,25.7,13L25.7,13z"/>
<path class="st0" d="M34.1,10.1h-3.4c-0.5,0-0.9,0.4-0.9,0.9s0.4,0.9,0.9,0.9h3.4c0.5,0,0.9-0.4,0.9-0.9S34.6,10.1,34.1,10.1z"/>
<path class="st0" d="M29.5,8.3c0.2,0.5,0.7,0.7,1.1,0.5c0,0,0,0,0,0l3.3-1.3c0.4-0.2,0.6-0.7,0.4-1.2c-0.2-0.4-0.6-0.6-1.1-0.5
	L30,7.1C29.6,7.3,29.3,7.8,29.5,8.3L29.5,8.3z"/>
<path class="st0" d="M33.9,14.5l-3.3-1.3c-0.4-0.2-1-0.1-1.2,0.4c-0.2,0.4-0.1,1,0.4,1.2c0.1,0,0.1,0.1,0.2,0.1l3.3,1.3
	c0.1,0,0.2,0.1,0.3,0.1c0.4,0,0.7-0.2,0.8-0.6C34.6,15.2,34.4,14.7,33.9,14.5C34,14.5,34,14.5,33.9,14.5L33.9,14.5z"/>
</svg>
