<?xml version="1.0" encoding="utf-8"?>
<!-- Generator: Adobe Illustrator 22.0.1, SVG Export Plug-In . SVG Version: 6.00 Build 0)  -->
<svg version="1.1" id="Layer_1" xmlns="http://www.w3.org/2000/svg" xmlns:xlink="http://www.w3.org/1999/xlink" x="0px" y="0px"
	 viewBox="0 0 31 34.4" style="enable-background:new 0 0 31 34.4;" xml:space="preserve">
<style type="text/css">
	.st0{fill:#FFFFFF;}
</style>
<title>music</title>
<path class="st0" d="M31,7.6V1c0-0.3-0.2-0.6-0.4-0.8C30.3,0,30,0,29.7,0L10.1,6.3C9.7,6.4,9.4,6.8,9.4,7.2v19.2
	c-1.1-0.7-2.4-1.1-3.7-1.1c-1.4,0-2.8,0.4-3.9,1.2C0,27.8-0.5,30.2,0.7,32c0.3,0.4,0.7,0.8,1.1,1.1c1.1,0.8,2.5,1.2,3.9,1.2
	c1.4,0,2.8-0.4,3.9-1.2c1.1-0.7,1.7-2,1.8-3.3V14.5l17.7-5.6v11.3c-1.1-0.7-2.4-1.1-3.7-1.1c-1.4,0-2.8,0.4-3.9,1.2
	c-1.8,1.2-2.3,3.6-1.1,5.4c0.3,0.5,0.7,0.8,1.1,1.1c2.3,1.6,5.5,1.6,7.8,0c1.1-0.8,1.7-2,1.8-3.3V7.6z M5.7,32.4
	c-2,0-3.7-1.2-3.7-2.6s1.7-2.6,3.7-2.6s3.7,1.2,3.7,2.6S7.7,32.4,5.7,32.4z M11.4,12.5V7.9l17.7-5.6v4.6L11.4,12.5z M25.4,26.1
	c-2,0-3.7-1.2-3.7-2.6s1.7-2.6,3.7-2.6s3.7,1.2,3.7,2.6S27.4,26.1,25.4,26.1z"/>
</svg>
