<?xml version="1.0" encoding="utf-8"?>
<!-- Generator: Adobe Illustrator 22.0.1, SVG Export Plug-In . SVG Version: 6.00 Build 0)  -->
<svg version="1.1" id="Layer_1" xmlns="http://www.w3.org/2000/svg" xmlns:xlink="http://www.w3.org/1999/xlink" x="0px" y="0px"
	 viewBox="0 0 35 30.2" style="enable-background:new 0 0 35 30.2;" xml:space="preserve">
<style type="text/css">
	.st0{fill:#FFFFFF;}
</style>
<title>office</title>
<path class="st0" d="M32.6,3.6h-8.8l-2.3-2.5C20.8,0.4,19.9,0,18.9,0H2.4C1.1,0,0,1.1,0,2.4v25.4c0,1.3,1.1,2.4,2.4,2.4h30.2
	c1.3,0,2.4-1.1,2.4-2.4V6C35,4.7,33.9,3.6,32.6,3.6z M20.7,1.9l1.6,1.7h-2.1l-2.3-2.5l0,0h1C19.6,1.2,20.2,1.4,20.7,1.9L20.7,1.9z
	 M15.3,1.1c0.7,0,1.3,0.3,1.8,0.8l1.6,1.7h-2.4L14,1.1l0,0L15.3,1.1z M2.4,1.1h9c0.7,0,1.3,0.3,1.8,0.8l1.6,1.7H2.4
	C1.9,3.6,1.5,3.8,1.1,4V2.4C1.1,1.7,1.7,1.1,2.4,1.1C2.4,1.1,2.4,1.1,2.4,1.1z M33.9,27.8c0,0.7-0.6,1.3-1.3,1.3H2.4
	c-0.7,0-1.3-0.6-1.3-1.3l0,0V6c0-0.7,0.6-1.3,1.2-1.3c0,0,0,0,0,0h30.2c0.7,0,1.3,0.6,1.3,1.3l0,0V27.8z"/>
<path class="st0" d="M30.2,7.3h-8.5c-0.6,0-1.2,0.5-1.2,1.2l0,0v6c0,0.6,0.5,1.2,1.2,1.2h8.5c0.6,0,1.2-0.5,1.2-1.2l0,0v-6
	C31.4,7.8,30.8,7.3,30.2,7.3L30.2,7.3z M30.2,14.5L30.2,14.5h-8.5l0,0v-6l0,0h8.5l0,0V14.5z"/>
<path class="st0" d="M28.4,9.7h-4.8c-0.3,0-0.6,0.3-0.6,0.6c0,0.3,0.2,0.6,0.5,0.6c0,0,0,0,0,0h4.8c0.3,0,0.6-0.3,0.6-0.6
	c0,0,0,0,0,0C29,9.9,28.7,9.7,28.4,9.7z"/>
<path class="st0" d="M28.4,12.1h-4.8c-0.3,0-0.6,0.3-0.6,0.6c0,0.3,0.3,0.6,0.6,0.6h4.8c0.3,0,0.6-0.3,0.6-0.6
	C29,12.3,28.7,12.1,28.4,12.1z"/>
</svg>
