<?xml version="1.0" encoding="utf-8"?>
<!-- Generator: Adobe Illustrator 22.0.1, SVG Export Plug-In . SVG Version: 6.00 Build 0)  -->
<svg version="1.1" id="Layer_1" xmlns="http://www.w3.org/2000/svg" xmlns:xlink="http://www.w3.org/1999/xlink" x="0px" y="0px"
	 viewBox="0 0 35 35" style="enable-background:new 0 0 35 35;" xml:space="preserve">
<style type="text/css">
	.st0{fill:#FFFFFF;}
</style>
<title>personal development</title>
<path class="st0" d="M31.1,29.4l-0.6-0.2c5.4-6,6-14.9,1.5-21.5c0,0-0.1-0.1-0.1-0.1c-0.9-1.2-1.9-2.4-3-3.4C28.6,4,28.3,4,28.1,4.2
	c-0.2,0.2-0.2,0.6,0.1,0.8c0.9,0.8,1.8,1.7,2.5,2.7c-1.3,0.5-2.7,0.9-4.1,1.2c-0.4-1.2-0.9-2.4-1.6-3.6c-0.8-1.3-1.7-2.5-2.9-3.5
	c1.7,0.5,3.2,1.2,4.7,2.2c0.2,0.2,0.6,0.1,0.8-0.1c0,0,0,0,0,0c0.2-0.3,0.1-0.6-0.1-0.8C20.3-1.7,11-0.8,5.1,5.1
	c-6.6,6.6-6.9,17.2-0.6,24.1l-0.6,0.2c-1.2,0.5-2,1.7-2,3v2c0,0.3,0.2,0.5,0.5,0.5H13c0.3,0,0.6-0.2,0.6-0.5c0-0.3-0.2-0.6-0.5-0.6
	c0,0-0.1,0-0.1,0h-1.7V32c-0.1-1.2,0.6-2.2,1.7-2.7l0,0l2.7-1l0,0l1.4,1.4c0.1,0.1,0.2,0.2,0.4,0.2l0,0c0.1,0,0.3-0.1,0.4-0.2
	l1.4-1.4l2.7,1.1l0,0c1.1,0.4,1.8,1.5,1.7,2.7v1.9h-8.9c-0.3,0-0.5,0.3-0.5,0.6c0,0.3,0.2,0.4,0.5,0.5h17.8c0.3,0,0.6-0.3,0.5-0.6
	v-2C33.1,31.1,32.3,29.9,31.1,29.4z M28.9,28.5v-0.3c0.6-0.4,1.1-0.9,1.3-1.6c0.9-0.1,1.5-0.9,1.4-1.7c0-0.4-0.2-0.8-0.6-1v-1
	c0-1.9-1.4-3.5-3.3-3.7c0-0.4,0-0.8,0-1.1h6.1c-0.1,4-1.7,7.8-4.5,10.7L28.9,28.5z M23.9,25.1c0-0.2,0.1-0.3,0.2-0.4v0.8
	C23.9,25.4,23.8,25.2,23.9,25.1L23.9,25.1z M17.9,25.9h-0.6c-1.3,0-2.4-1.1-2.4-2.4v-1.9c1.4-0.1,2.8-0.6,3.9-1.5
	c0.3,0.6,0.8,1.1,1.4,1.4v2.1C20.2,24.9,19.2,25.9,17.9,25.9C17.9,25.9,17.9,25.9,17.9,25.9L17.9,25.9z M13.3,22.7
	c0-0.3,0.2-0.6,0.5-0.7v1.4C13.5,23.3,13.2,23.1,13.3,22.7L13.3,22.7z M14,17H8.3c0-2.3,0.4-4.6,1-6.9c2.5,0.4,5.1,0.6,7.7,0.6v4.8
	C15.8,15.6,14.8,16.2,14,17z M7.3,28.6h0.3h0.5h0.3v0.3l-0.6,0.6L7.3,29V28.6L7.3,28.6z M8.2,27.5H7.6c-1,0-1.8-0.8-1.8-1.8v-1.5
	c1.1-0.1,2.1-0.5,3-1.1c0.2,0.4,0.6,0.8,1.1,1v1.6C10,26.7,9.2,27.5,8.2,27.5C8.2,27.5,8.2,27.5,8.2,27.5z M4.6,25.1
	c0-0.2,0.1-0.3,0.2-0.4v0.8C4.6,25.4,4.6,25.2,4.6,25.1z M11,24.7c0.2,0.1,0.3,0.4,0.1,0.6c0,0.1-0.1,0.1-0.1,0.1V24.7z M10.6,23.2
	L10.6,23.2C9.8,23,9.6,22,9.6,22c-0.1-0.3-0.3-0.5-0.6-0.4c-0.1,0-0.3,0.1-0.4,0.2c-1,1.4-3.2,1.4-3.3,1.4H5.1v-0.4
	c0-1.4,1.2-2.6,2.6-2.6c0,0,0,0,0,0H8c1.4,0,2.6,1.2,2.6,2.6V23.2L10.6,23.2z M1.1,17c0.1-3,1-5.9,2.6-8.4c1.4,0.6,2.9,1,4.5,1.3
	c-0.6,2.3-1,4.7-1,7.1L1.1,17z M21.1,20v0.7l0,0l0,0l0,0l0,0H21c-1-0.2-1.4-1.6-1.4-1.6c0-0.2-0.2-0.4-0.4-0.4c-0.2,0-0.4,0-0.5,0.2
	c-1.3,1.8-4.2,1.8-4.2,1.8h-0.3l0,0l0,0l0,0l0,0V20c0-1.9,1.5-3.4,3.4-3.4h0.3C19.7,16.7,21.1,18.2,21.1,20z M17,1.1v8.5
	c-2.5,0-4.9-0.2-7.4-0.6c0.4-1.1,0.9-2.2,1.4-3.2C12.7,3,14.8,1.4,17,1.1z M21.3,22c0.3,0.1,0.5,0.4,0.5,0.7c0,0.3-0.2,0.6-0.5,0.7
	V22z M21,17c-0.8-0.9-1.8-1.4-3-1.5v-4.8c2.6,0,5.1-0.2,7.7-0.6c0.6,2.2,1,4.6,1,6.9L21,17z M27,20.3h0.3c1.4,0,2.6,1.2,2.6,2.6v0
	v0.4h0c-0.8-0.2-1-1.2-1-1.2c-0.1-0.3-0.3-0.5-0.6-0.4c-0.1,0-0.3,0.1-0.4,0.2c-1,1.4-3.2,1.4-3.3,1.4h-0.2v-0.4
	C24.4,21.5,25.6,20.3,27,20.3L27,20.3z M30.3,24.7c0.2,0.1,0.3,0.4,0.1,0.6c0,0.1-0.1,0.1-0.1,0.1V24.7z M25.1,24.3
	c1.1-0.1,2.1-0.5,3-1.1c0.2,0.4,0.6,0.8,1.1,1v1.6c0,1-0.8,1.8-1.8,1.8l0,0h-0.5c-1,0-1.8-0.8-1.8-1.8L25.1,24.3L25.1,24.3z
	 M26.6,28.6h0.3h0.5h0.3v0.3l-0.6,0.6L26.6,29V28.6z M31.3,8.6c1.6,2.5,2.5,5.4,2.6,8.4h-6.1c0-2.4-0.4-4.8-1-7.1
	C28.3,9.6,29.8,9.2,31.3,8.6L31.3,8.6z M23.9,5.8c0.6,1,1.1,2.1,1.4,3.2C23,9.4,20.5,9.6,18,9.6V1.1C20.3,1.4,22.3,3,23.9,5.8z
	 M13,1.7c-1.2,1-2.1,2.2-2.9,3.5C9.5,6.4,8.9,7.6,8.5,8.8C7.1,8.6,5.7,8.2,4.4,7.7C6.5,4.8,9.6,2.7,13,1.7z M1.1,18h6.1
	c0,0.4,0,0.8,0.1,1.1C5.4,19.4,4,21,4,22.9v1c-0.7,0.5-0.8,1.5-0.2,2.2c0.3,0.3,0.7,0.5,1.1,0.6c0.2,0.7,0.7,1.2,1.3,1.6v0.3
	l-0.6,0.2C2.8,25.9,1.2,22.1,1.1,18z M6.8,33.9H3v-1.4c0-0.9,0.5-1.7,1.3-2l0,0l2.1-0.8l1.1,1.1c0.1,0.1,0.2,0.2,0.4,0.1l0,0
	c0.1,0,0.3-0.1,0.4-0.2l1-1.1l1.3,0.5c-0.2,0.6-0.3,1.2-0.3,1.8v1.9L6.8,33.9L6.8,33.9z M12.6,28.3c-0.5,0.2-1,0.5-1.4,0.9l-1.7-0.7
	v-0.3c0.6-0.4,1.1-0.9,1.3-1.6c0.9-0.1,1.5-0.8,1.4-1.7c0-0.4-0.2-0.8-0.6-1.1v-1c0-1.9-1.5-3.5-3.4-3.7c0-0.4,0-0.7,0-1.1h5
	c-0.3,0.6-0.5,1.3-0.5,2v1.3c-0.8,0.6-1,1.7-0.4,2.5c0.3,0.5,0.9,0.7,1.4,0.7c0.3,0.9,0.9,1.6,1.6,2v0.6L12.6,28.3z M17.5,28.5
	l-0.9-0.8V27c0.2,0,0.4,0,0.6,0h0.6c0.2,0,0.4,0,0.6,0v0.6l0,0l0,0L17.5,28.5z M22.4,28.3l-2.9-1.1v-0.6c0.8-0.4,1.4-1.1,1.6-2
	c1,0,1.8-0.9,1.7-1.9c0-0.5-0.3-1-0.7-1.4V20c0-0.7-0.1-1.3-0.4-1.9h4.9c0,0.4,0,0.8,0,1.1c-1.9,0.2-3.4,1.8-3.4,3.7v1
	c-0.7,0.5-0.8,1.5-0.2,2.2c0.3,0.3,0.7,0.5,1.1,0.6c0.2,0.7,0.7,1.2,1.3,1.6v0.3l-1.7,0.7C23.4,28.8,22.9,28.5,22.4,28.3z M32,33.9
	h-7.2V32c0-0.6-0.1-1.3-0.4-1.8l1.3-0.5l1.1,1.1c0.1,0.1,0.2,0.2,0.4,0.1l0,0c0.1,0,0.3-0.1,0.4-0.2l1-1.1l2.1,0.8l0,0
	c0.8,0.3,1.3,1.1,1.3,2v1.4L32,33.9z"/>
</svg>
