<?xml version="1.0" encoding="utf-8"?>
<!-- Generator: Adobe Illustrator 22.0.1, SVG Export Plug-In . SVG Version: 6.00 Build 0)  -->
<svg version="1.1" id="Layer_1" xmlns="http://www.w3.org/2000/svg" xmlns:xlink="http://www.w3.org/1999/xlink" x="0px" y="0px"
	 viewBox="0 0 33 34.2" style="enable-background:new 0 0 33 34.2;" xml:space="preserve">
<style type="text/css">
	.st0{fill:#FFFFFF;}
</style>
<title>photography</title>
<path class="st0" d="M2.4,31.8h28.2V11.4H2.4V31.8z M29.4,30.6H4.6l8.6-7.6l6.2,6.2c0.2,0.2,0.6,0.2,0.8,0c0,0,0,0,0,0
	c0.2-0.2,0.2-0.6,0-0.8c0,0,0,0,0,0l-2.9-2.9l5.5-6l6.6,6L29.4,30.6z M3.6,12.6h25.8v11.2l-6.2-5.7C23.1,18,22.9,18,22.8,18
	c-0.2,0-0.3,0.1-0.4,0.2l-5.9,6.4l-2.9-2.9c-0.2-0.2-0.6-0.2-0.8,0l-9.2,8.1V12.6z"/>
<path class="st0" d="M8.4,14.4c-1.8,0-3.3,1.5-3.3,3.3s1.5,3.3,3.3,3.3s3.3-1.5,3.3-3.3l0,0C11.7,15.9,10.2,14.4,8.4,14.4z
	 M8.4,19.9c-1.2,0-2.1-1-2.1-2.1c0-1.2,1-2.1,2.1-2.1s2.1,1,2.1,2.1l0,0C10.5,18.9,9.6,19.9,8.4,19.9z"/>
<path class="st0" d="M29,9c-3.2-2.9-6.5-5.5-10-8c-1.1-1.2-3-1.3-4.2-0.1c0,0-0.1,0.1-0.1,0.1C11.2,3.5,7.8,6.2,4.6,9H0v25.2h33V9
	H29z M15,2.6C15,2.6,15,2.6,15,2.6c0.1-0.3,0.2-0.6,0.4-0.8l0,0C16,1.1,17.2,1,17.9,1.6C18,1.7,18,1.7,18.1,1.8l0,0
	c0.2,0.2,0.3,0.5,0.4,0.7c0,0,0,0,0,0.1c0,0.1,0,0.3,0,0.4c0,1-0.8,1.8-1.8,1.8c-1,0-1.8-0.8-1.8-1.8C14.9,2.8,14.9,2.7,15,2.6z
	 M13.8,2.9L13.8,2.9c0,1.7,1.3,3,3,3s3-1.3,3-3l0,0c2.5,1.8,5.7,4.6,7.4,6H6.4C8.1,7.5,11.3,4.7,13.8,2.9L13.8,2.9z M31.8,32.9H1.2
	V10.2h30.6L31.8,32.9z"/>
</svg>
