<?xml version="1.0" encoding="utf-8"?>
<!-- Generator: Adobe Illustrator 22.0.1, SVG Export Plug-In . SVG Version: 6.00 Build 0)  -->
<svg version="1.1" id="Layer_1" xmlns="http://www.w3.org/2000/svg" xmlns:xlink="http://www.w3.org/1999/xlink" x="0px" y="0px"
	 viewBox="0 0 35 35" style="enable-background:new 0 0 35 35;" xml:space="preserve">
<style type="text/css">
	.st0{fill:#FFFFFF;}
</style>
<title>teaching</title>
<path class="st0" d="M13.3,4.2c0-2.3-1.8-4.1-4.1-4.2C6.9,0,5.1,1.9,5.1,4.2c0,2.3,1.8,4.1,4.1,4.1S13.3,6.4,13.3,4.2z M9.2,6.2
	c-1.1,0-2-0.9-2.1-2c0-1.2,0.9-2.1,2-2.2c0,0,0,0,0,0c1.1,0.1,2,1,2,2.1C11.2,5.3,10.3,6.2,9.2,6.2z"/>
<path class="st0" d="M3.1,22.6c0.3,0,0.7-0.1,1-0.2v9.5c0,1.7,1.4,3.1,3.1,3.1c0.8,0,1.5-0.3,2.1-0.8c0.5,0.5,1.3,0.8,2,0.8
	c1.7,0,3.1-1.4,3.1-3.1V18.3c0.8,0.3,1.7,0.2,2.4-0.1l3.5-1.7h11.8c1.7,0,3.1-1.4,3.1-3.1V3.1C35,1.4,33.6,0,31.9,0H17.4
	c-1.7,0-3.1,1.4-3.1,3.1v7l-0.9-0.9c-0.6-0.6-1.4-0.9-2.2-0.9H5.1C2.3,8.3,0,10.6,0,13.4v6.1C0,21.3,1.4,22.6,3.1,22.6z M17.4,2
	h14.5c0.6,0,1,0.4,1,1v10.4c0,0.6-0.4,1-1,1h-9.5c0,0,0,0,0-0.1c0.2-0.4,0.2-0.9,0.2-1.3l5.6-2.8c0.5-0.3,0.7-0.9,0.5-1.4
	c-0.3-0.5-0.9-0.7-1.4-0.5l-5.6,2.8c-0.9-0.9-2.3-1.1-3.5-0.5l-1.7,0.9V3.1C16.4,2.5,16.8,2.1,17.4,2C17.4,2,17.4,2,17.4,2z M2,13.4
	c0-1.7,1.4-3.1,3.1-3.1l0,0h6.2c0.3,0,0.5,0.1,0.7,0.3l3.1,3.1c0.3,0.3,0.8,0.4,1.2,0.2l2.8-1.4c0.5-0.3,1.1,0,1.4,0.5
	c0.3,0.5,0,1.1-0.5,1.4l-4.1,2c-0.4,0.2-0.9,0.1-1.2-0.2L14,15.6c-0.4-0.4-1-0.5-1.4-0.1c-0.2,0.2-0.4,0.5-0.4,0.8l0,0v15.6
	c0,0.6-0.5,1-1,1c-0.6,0-1-0.5-1-1V21.6c0-0.6-0.5-1-1-1c-0.6,0-1,0.5-1,1v10.3c0,0.6-0.4,1-1,1s-1-0.4-1-1V13.4c0-0.6-0.5-1-1-1
	s-1,0.5-1,1v6.1c0,0.6-0.4,1-1,1s-1-0.4-1-1L2,13.4z"/>
</svg>
