<?xml version="1.0" encoding="utf-8"?>
<!-- Generator: Adobe Illustrator 22.0.1, SVG Export Plug-In . SVG Version: 6.00 Build 0)  -->
<svg version="1.1" id="Layer_1" xmlns="http://www.w3.org/2000/svg" xmlns:xlink="http://www.w3.org/1999/xlink" x="0px" y="0px"
	 viewBox="0 0 35 35" style="enable-background:new 0 0 35 35;" xml:space="preserve">
<style type="text/css">
	.st0{fill:#FFFFFF;}
</style>
<title>translation</title>
<path class="st0" d="M15.3,8c-0.4,0-0.7,0.3-0.7,0.7v3.7h-0.8v-0.1C13.5,9.8,11.3,7.9,8.7,8C8.3,8,8,8.3,8,8.7s0.3,0.7,0.7,0.7
	c0,0,0.1,0,0.1,0c1.8-0.1,3.3,1.2,3.6,3H5.1c-0.2,0-0.4,0.1-0.5,0.2c-0.1,0.1-0.2,0.3-0.2,0.6c0.1,1.3,0.8,2.4,1.8,3.2
	c0.8,0.7,1.9,1.1,3,1.1h0.4c2-0.3,3.6-1.7,4.2-3.6h0.9v2.9c0,0.4,0.3,0.7,0.7,0.7s0.7-0.3,0.7-0.7v-8c0-0.4-0.3-0.8-0.7-0.8
	C15.4,8,15.4,8,15.3,8z M9.4,16c-0.8,0.1-1.7-0.2-2.3-0.8c-0.5-0.4-0.8-0.9-1.1-1.4h6.2C11.7,15,10.7,15.9,9.4,16z"/>
<path class="st0" d="M29.1,23.6l-3.6-7.1c-0.1-0.2-0.4-0.4-0.6-0.4c-0.3,0-0.5,0.2-0.6,0.4l-3.7,7.3c-0.2,0.4-0.1,0.8,0.3,1
	c0,0,0,0,0,0c0.1,0,0.2,0.1,0.3,0.1c0.3,0,0.5-0.1,0.6-0.4l1.3-2.5h3.5l1.2,2.4c0.2,0.4,0.6,0.5,0.9,0.4s0.5-0.6,0.4-0.9
	C29.1,23.7,29.1,23.7,29.1,23.6L29.1,23.6z M23.8,20.5l1-2.1l1.1,2.1H23.8z"/>
<path class="st0" d="M34.9,19.5c-0.9-5.5-6-9.3-11.6-8.5c-1,0.2-2,0.5-2.9,0.9c-0.6-5.6-5.7-9.6-11.3-9s-9.6,5.7-9,11.3
	s5.7,9.6,11.3,9c1.2-0.1,2.3-0.5,3.3-1c0.5,4.2,3.5,7.7,7.6,8.8l0,0c0.8,0.2,1.6,0.3,2.5,0.3c5.7,0,10.3-4.6,10.3-10.3
	C35,20.6,35,20.1,34.9,19.5z M10.2,21.9c-4.8,0-8.8-3.9-8.8-8.8c0-4.8,3.9-8.8,8.8-8.8S19,8.2,19,13.1c0,0,0,0,0,0
	C19,17.9,15.1,21.9,10.2,21.9L10.2,21.9z M32.5,25.4c-2.3,4.2-7.6,5.8-11.8,3.5c-2.7-1.5-4.5-4.3-4.6-7.4c2.6-1.8,4.2-4.7,4.4-7.9
	c4.2-2.4,9.5-1,12,3.1C33.9,19.4,34,22.7,32.5,25.4z"/>
<path class="st0" d="M13.9,30.5L13.9,30.5C13.9,30.5,13.9,30.5,13.9,30.5L13.9,30.5c0-0.1,0-0.1,0-0.1l0,0v0l0,0l-0.1-0.1v-0.1l0,0
	h-0.1l0,0c0,0,0,0-0.1,0l0,0h-0.1l-3.9-1.7C9.4,28.4,9,28.6,8.8,29c-0.1,0.3,0,0.7,0.4,0.9l2.5,1c-1.4,0.7-3,0.8-4.4,0.1l0,0
	c-1.8-0.8-3-2.7-2.9-4.7c0-0.4-0.2-0.8-0.6-0.8c-0.4,0-0.8,0.2-0.8,0.6c0,0.1,0,0.1,0,0.2c-0.1,2.6,1.4,4.9,3.7,6
	c1.6,0.7,3.4,0.8,5,0.2L11,34c-0.2,0.4,0,0.8,0.4,0.9c0,0,0,0,0,0c0.1,0,0.2,0,0.3,0c0.3,0,0.6-0.2,0.7-0.4l1.5-3.6l0,0l0,0
	c0,0,0,0,0-0.1l0,0c0,0,0-0.1,0-0.1L13.9,30.5C13.8,30.6,13.8,30.6,13.9,30.5L13.9,30.5L13.9,30.5z"/>
<path class="st0" d="M21.2,4.5L21.2,4.5C21.2,4.5,21.2,4.5,21.2,4.5L21.2,4.5v0.2l0,0l0,0l0,0v0.1l0.1,0.1l0,0h0l0,0h0l0,0h0.1
	l3.7,1.5c0.4,0.1,0.8,0,0.9-0.4c0,0,0,0,0,0c0.2-0.4,0-0.8-0.4-0.9c0,0,0,0,0,0l-2.5-1c1.4-0.7,3-0.8,4.4-0.1l0,0
	c1.8,0.8,2.9,2.7,2.9,4.7c0,0.4,0.3,0.7,0.7,0.7c0,0,0,0,0,0l0,0c0.4,0,0.7-0.3,0.7-0.7c0.1-2.6-1.4-4.9-3.7-6
	c-1.6-0.8-3.4-0.8-5-0.2L24,1c0.1-0.4,0-0.8-0.4-0.9c0,0,0,0,0,0c-0.4-0.1-0.8,0-0.9,0.4c0,0,0,0,0,0l-1.4,3.6l0,0c0,0,0,0,0,0.1
	l0,0c0,0,0,0.1,0,0.1v0.1C21.2,4.3,21.2,4.3,21.2,4.5L21.2,4.5L21.2,4.5z"/>
</svg>
